<svg width="18" height="18" viewBox="0 0 18 18" fill="none" xmlns="http://www.w3.org/2000/svg">
<path d="M8.25 7.875H8.5C8.77614 7.875 9 8.09886 9 8.375V11.125C9 11.4011 9.22386 11.625 9.5 11.625H9.75M9.00001 6.375H9.00751" stroke="#2A4157" stroke-opacity="0.24" stroke-linecap="round" stroke-linejoin="round"/>
<path d="M10.0419 14.9088C10.8178 14.772 11.5593 14.4837 12.2238 14.0603C12.8883 13.637 13.463 13.0869 13.9149 12.4415C14.3669 11.796 14.6872 11.0679 14.8578 10.2986C15.0283 9.52938 15.0457 8.73407 14.9088 7.95811C14.772 7.18215 14.4837 6.44074 14.0603 5.7762C13.637 5.11167 13.0869 4.53703 12.4415 4.08509C11.796 3.63315 11.0679 3.31276 10.2986 3.14222C9.52938 2.97168 8.73407 2.95433 7.95811 3.09115C7.18215 3.22798 6.44074 3.5163 5.7762 3.93965C5.11167 4.36301 4.53703 4.91311 4.08509 5.55854C3.63315 6.20398 3.31276 6.93211 3.14222 7.70136C2.97168 8.47062 2.95433 9.26593 3.09115 10.0419C3.22798 10.8179 3.5163 11.5593 3.93965 12.2238C4.36301 12.8883 4.91311 13.463 5.55854 13.9149C6.20398 14.3669 6.93211 14.6872 7.70136 14.8578C8.47062 15.0283 9.26593 15.0457 10.0419 14.9088L10.0419 14.9088Z" stroke="#2A4157" stroke-opacity="0.24"/>
</svg>
