<svg width="24" height="24" viewBox="0 0 24 24" fill="none" xmlns="http://www.w3.org/2000/svg">
<path d="M14.7999 16.6682H19.4665L18.1553 15.357C17.7997 15.0013 17.5999 14.519 17.5999 14.0161V11.0682C17.5999 8.62996 16.0416 6.55564 13.8665 5.78688V5.46823C13.8665 4.4373 13.0308 3.60156 11.9999 3.60156C10.9689 3.60156 10.1332 4.4373 10.1332 5.46823V5.78688C7.95818 6.55564 6.39987 8.62996 6.39987 11.0682V14.0161C6.39987 14.519 6.20009 15.0013 5.84447 15.357L4.5332 16.6682H9.19987M14.7999 16.6682V17.6016C14.7999 19.148 13.5463 20.4016 11.9999 20.4016C10.4535 20.4016 9.19987 19.148 9.19987 17.6016V16.6682M14.7999 16.6682H9.19987" stroke="#042F2E" stroke-width="1.4" stroke-linecap="round" stroke-linejoin="round"/>
</svg>
