<svg width="54" height="30" viewBox="0 0 54 30" fill="none" xmlns="http://www.w3.org/2000/svg">
<path d="M53.8648 0.58332C50.982 0.58332 48.2718 2.74559 46.6245 6.25488L35.7329 30H34.4376L26.9028 16.9749L20.9578 30H19.6625L4.65261 3.99656C3.003 1.15961 2.41402 0.58332 0.17773 0.58332C-0.0592433 0.58332 -0.0592433 0.0046853 0.17773 0.0046853C1.10568 0.00780884 2.55283 0.00780884 4.51917 0.0046853C9.70958 0.00234265 11.4213 0.0046853 13.0111 0.0046853C13.2458 0.0046853 13.2458 0.580978 13.0111 0.580978C9.774 0.580978 9.59684 1.30251 11.656 4.85866L22.2531 23.2204L25.9618 15.2881L19.4278 3.99422C18.1923 1.87881 17.0742 0.580978 15.6592 0.580978C15.4222 0.580978 15.4222 0.0046853 15.6592 0.0046853C16.8372 0.0046853 16.8579 0.0046853 19.3312 0.0046853C23.7462 0.0046853 25.1381 0.0046853 26.4334 0.0046853C26.6704 0.0046853 26.6704 0.580978 26.4334 0.580978C24.3145 0.580978 24.3743 1.30251 26.4334 4.85866L29.024 9.32844L30.4965 6.10729C32.2635 2.30985 32.2635 0.578635 30.3194 0.578635C30.0824 0.578635 30.0824 0.00234265 30.3194 0.00234265C31.4973 0.00234265 30.5839 0.00234265 34.1155 0.00234265C36.0573 0.00234265 36.9707 0.00234265 38.7377 0.00234265C38.9148 0.00234265 38.9148 0.578635 38.7377 0.578635C36.0895 0.578635 33.9683 2.4059 32.2036 6.2502L30.0249 11.0081L37.0903 23.1688L44.685 6.58519C46.2748 3.12276 44.9795 0.576292 42.0369 0.576292C41.7999 0.576292 41.7999 0 42.0369 0C44.096 0 45.6927 0 48.633 0C50.8118 0 51.8655 0 53.8671 0C54.0443 0 54.0443 0.576292 53.8671 0.576292L53.8648 0.58332Z" fill="#128B9B"/>
</svg>
